<svg width="257" height="197" viewBox="0 0 257 197" fill="none" xmlns="http://www.w3.org/2000/svg">
<rect width="257" height="191.497" fill="white"/>
<path d="M138.359 88.8652C142.926 82.5711 152.963 69.9829 156.573 69.9829C159.825 63.1887 167.046 46.1981 183.309 41.4087C193.947 39.6429 198.87 39.6955 206.034 41.4087C214.724 43.4865 227.268 57.677 235.444 60.291C242.624 62.5869 251.109 83.1582 250.316 96.0505L235.444 88.8652L216.562 81.847C201.931 83.2578 202.191 90.8704 189.492 93.8782C176.792 96.886 175.969 95.1094 167.601 90.8704L138.359 88.8652Z" fill="#217703" stroke="#2FAF01" stroke-width="0.3342"/>
<ellipse cx="54.7174" cy="50.6313" rx="54.7174" ry="50.6313" transform="matrix(0.955643 0.294528 0.294528 -0.955643 45.117 100.447)" fill="#521864"/>
<ellipse cx="49.5336" cy="45.8347" rx="49.5336" ry="45.8347" transform="matrix(0.955643 0.294528 0.294528 -0.955643 56.3243 99.0678)" fill="white"/>
<path d="M166.933 77.0331C189.19 59.5936 201.25 58.2066 222.076 69.3465" stroke="#2FAF01" stroke-width="0.668401"/>
<path d="M46.8071 144.936C54.4964 146.514 55.3316 147.439 57.9845 152.125C60.3158 157.673 60.2118 160.779 58.7053 166.314C57.1658 170.978 46.9637 176.632 36.8793 175.122C30.6291 173.389 27.9574 172.112 24.4838 169.361C20.271 166.026 15.2357 156.364 13.2288 151.607C11.8392 148.314 11.9783 134.969 14.1815 128.333L20.128 136.639L23.1358 141.318L28.9921 144.636C37.3299 147.575 39.1178 143.357 46.8071 144.936Z" fill="#217703" stroke="#2FAF01" stroke-width="0.20101"/>
<path d="M58.8608 159.389C40.7563 163.62 33.1806 161.105 23.8492 148.691" stroke="#2FAF01" stroke-width="0.439502"/>
<ellipse cx="86.8921" cy="128.5" rx="51.4668" ry="47.6235" transform="rotate(119.535 86.8921 128.5)" fill="#521864"/>
<ellipse cx="86.3609" cy="133.346" rx="46.591" ry="43.1118" fill="white"/>
<ellipse cx="54.7174" cy="50.6313" rx="54.7174" ry="50.6313" transform="matrix(-1 0 0 1 205.35 74.8608)" fill="#521864"/>
<ellipse cx="49.5336" cy="45.8347" rx="49.5336" ry="45.8347" transform="matrix(-1 0 0 1 198.388 75.8036)" fill="white"/>
</svg>
