<?xml version="1.0" standalone="no"?>
<!DOCTYPE svg PUBLIC "-//W3C//DTD SVG 20010904//EN"
 "http://www.w3.org/TR/2001/REC-SVG-20010904/DTD/svg10.dtd">
<svg version="1.0" xmlns="http://www.w3.org/2000/svg"
 width="257.000000pt" height="197.000000pt" viewBox="0 0 257.000000 197.000000"
 preserveAspectRatio="xMidYMid meet">

<g transform="translate(0.000000,197.000000) scale(0.100000,-0.100000)"
fill="#000000" stroke="none">
<path d="M1003 1790 c-308 -55 -493 -354 -394 -635 l20 -56 -40 -26 c-52 -34
-132 -142 -164 -220 -35 -88 -48 -185 -36 -263 6 -34 8 -67 5 -71 -10 -16 -77
-9 -120 11 -31 15 -54 38 -85 87 -52 79 -57 73 -58 -66 -1 -90 1 -97 35 -160
20 -36 50 -81 67 -99 37 -38 121 -72 180 -72 41 0 125 31 137 50 3 5 22 -1 42
-15 91 -62 224 -88 333 -65 58 12 165 54 165 64 0 3 -20 -4 -45 -15 -90 -40
-249 -42 -355 -4 -105 37 -212 133 -258 233 -24 51 -27 69 -27 167 0 105 2
114 33 178 59 119 169 208 302 242 78 21 210 16 283 -10 46 -17 57 -28 37 -40
-19 -12 -77 -139 -89 -193 -52 -247 102 -488 369 -578 77 -26 253 -26 330 0
185 63 307 180 360 345 43 134 15 295 -72 417 -23 32 -29 48 -20 51 7 3 35 21
63 40 64 44 109 63 149 63 33 0 149 -42 268 -96 41 -19 75 -34 78 -34 9 0 3
66 -12 123 -30 116 -87 205 -149 232 -16 7 -78 48 -136 92 -94 71 -115 82
-171 92 -131 25 -270 -17 -344 -103 -19 -22 -36 -38 -38 -35 -2 2 -18 32 -35
66 -63 125 -200 240 -339 283 -75 23 -198 32 -269 20z m310 -82 c180 -55 318
-212 347 -393 13 -83 7 -120 -18 -110 -9 4 -62 9 -117 10 l-100 3 90 -7 c50
-5 113 -15 142 -24 111 -33 232 -137 283 -242 98 -200 28 -443 -163 -566 -208
-135 -480 -107 -653 65 -176 177 -174 450 5 626 31 30 51 51 44 47 -7 -4 -38
5 -71 22 -108 55 -232 64 -345 25 -68 -23 -72 -17 -72 124 0 113 1 120 34 187
104 212 350 308 594 233z"/>
<path d="M1378 1203 c7 -3 16 -2 19 1 4 3 -2 6 -13 5 -11 0 -14 -3 -6 -6z"/>
</g>
</svg>
