<svg width="45" height="43" viewBox="0 0 45 43" fill="none" xmlns="http://www.w3.org/2000/svg">
<path d="M8.76118 30.7574C5.1419 31.8432 2.90332 33.3432 2.90332 35C2.90332 38.3137 11.8576 41 22.9033 41C33.949 41 42.9033 38.3137 42.9033 35C42.9033 33.3432 40.6647 31.8432 37.0454 30.7574" stroke="#521864" stroke-width="4" stroke-linecap="round" stroke-linejoin="round"/>
<path d="M22.9033 33C22.9033 33 35.9033 24.504 35.9033 14.6818C35.9033 7.67784 30.083 2 22.9033 2C15.7236 2 9.90332 7.67784 9.90332 14.6818C9.90332 24.504 22.9033 33 22.9033 33Z" fill="#FF900B" stroke="#521864" stroke-width="4" stroke-linejoin="round"/>
<path d="M22.9033 20C25.6647 20 27.9033 17.7614 27.9033 15C27.9033 12.2386 25.6647 10 22.9033 10C20.1419 10 17.9033 12.2386 17.9033 15C17.9033 17.7614 20.1419 20 22.9033 20Z" fill="#FF900B" stroke="white" stroke-width="4" stroke-linejoin="round"/>
</svg>
